<svg xmlns="http://www.w3.org/2000/svg" viewBox="0 0 11.47 11.49"><defs><style>.cls-1{fill:#fff;}.cls-2{fill:#8ec6c1;}</style></defs><g id="Layer_2" data-name="Layer 2"><g id="Layer_1-2" data-name="Layer 1"><path class="cls-1" d="M0,5.74a5.74,5.74,0,1,1,5.73,5.75A5.74,5.74,0,0,1,0,5.74Z"/><path class="cls-2" d="M8.19,5.79V9.5a.62.62,0,0,1-.36.61.63.63,0,0,1-.3.07H3.88a.65.65,0,0,1-.67-.69V2.09a.63.63,0,0,1,.37-.62.67.67,0,0,1,.31-.07H7.51a.64.64,0,0,1,.68.68Zm-.48-3.3h-4V8.06c0,.08,0,.1.1.1H7.61c.08,0,.1,0,.1-.1V2.49Zm-2-.39h.85c.11,0,.15-.05.14-.16s0-.15-.13-.15H4.85c-.11,0-.14,0-.14.15s0,.16.14.16Zm0,7.45a.41.41,0,1,0,0-.81.41.41,0,1,0,0,.81Z"/></g></g></svg>