<svg xmlns="http://www.w3.org/2000/svg" viewBox="0 0 19.55 19.55"><defs><style>.cls-1{fill:#8ec6c1;}</style></defs><g id="Layer_2" data-name="Layer 2"><g id="Layer_1-2" data-name="Layer 1"><path class="cls-1" d="M0,9.78a9.78,9.78,0,1,1,9.79,9.77A9.74,9.74,0,0,1,0,9.78Zm10,3.81a.13.13,0,0,0,.14-.13c0-1,0-2,0-3a1,1,0,0,1,.65-1.09.93.93,0,0,1,1.26,1c0,1,0,2,0,3a.13.13,0,0,0,.13.13h1.31a.13.13,0,0,0,.13-.13c0-1.36.07-2.68,0-4a1.57,1.57,0,0,0-1.85-1.52,5.36,5.36,0,0,0-1.43.61h0a.12.12,0,0,1-.17-.1l0-.28A.14.14,0,0,0,10,8.06H8.69a.13.13,0,0,0-.14.13v5.27a.13.13,0,0,0,.14.13ZM6,8.18v5.31a.13.13,0,0,0,.14.13,8.51,8.51,0,0,1,.88,0c.45,0,.59-.12.58-.57,0-1.35,0-2.71,0-4.06V8.18a.13.13,0,0,0-.13-.13H6.08A.13.13,0,0,0,6,8.18ZM7.57,6.76a.87.87,0,0,0-.83-.85.84.84,0,0,0-.85.82.82.82,0,0,0,.82.85A.85.85,0,0,0,7.57,6.76Z"/></g></g></svg>