<svg xmlns="http://www.w3.org/2000/svg" viewBox="0 0 509.78 130.03"><defs><style>.cls-1,.cls-3{fill:#fff;}.cls-2{fill:#8ec6c1;}.cls-3{font-size:17.94px;font-family:RubrikEdgeNew-Light, Rubrik Edge New;font-weight:300;}</style></defs><g id="Layer_2" data-name="Layer 2"><g id="Layer_1-2" data-name="Layer 1"><path class="cls-1" d="M12.46,80.31C4.34,80.31.89,74.89.89,67.75V30.57C.89,28,.89,28,3.19,28c2.46,0,2.46,0,2.46,2.54v6.49H18.86c2.47,0,2.47,0,2.47,2.42,0,2.26,0,2.26-2.47,2.26H5.65V68.16c0,4.27,2.09,7.39,7,7.39a17.38,17.38,0,0,0,6.89-1.4,3.94,3.94,0,0,1,1.15-.24c.66,0,.82.33,1.4,1.72s.57,1.44.57,1.68c0,.58-.66.91-1.4,1.23A22.32,22.32,0,0,1,12.46,80.31Z"/><path class="cls-1" d="M61.13,36.32c9.19,0,15.68,5.42,15.68,16.25V77.44c0,2.13,0,2.13-2.38,2.13s-2.38,0-2.38-2.13V53c0-7.47-3.78-11.9-11.16-11.9-5.59,0-10.92,3.53-13.79,7.47V77.44c0,2.13,0,2.13-2.38,2.13s-2.38,0-2.38-2.13V24.34c0-2.47,0-2.47,2.38-2.47s2.38,0,2.38,2.47V42.56A19.83,19.83,0,0,1,61.13,36.32Z"/><path class="cls-1" d="M122.36,38.45a7.25,7.25,0,0,1-.41,1.81c-.41,1.48-.66,1.76-1.23,1.76a12.48,12.48,0,0,1-2.55-.49,18.52,18.52,0,0,0-4.43-.45c-5.5,0-8.21,2.3-8.21,8V77.44c0,2.13,0,2.13-2.29,2.13-2.47,0-2.47,0-2.47-2.13V48.88c0-7.88,4.6-12.56,12.89-12.56a27.41,27.41,0,0,1,6.81.82C121.29,37.39,122.36,37.63,122.36,38.45Z"/><path class="cls-1" d="M168.24,60.61h-26.1v1.56c0,8.7,5.41,13.38,13.54,13.38a21.6,21.6,0,0,0,9.77-1.89,6.64,6.64,0,0,1,1.88-.74c.58,0,.91.58,1.65,2a4,4,0,0,1,.57,1.56c0,.41-.33.66-1.23,1.15a30.07,30.07,0,0,1-12.64,2.63c-11.49,0-17.65-7.14-18.22-17.81a93.35,93.35,0,0,1,.08-9.52c.74-10.42,7.88-16.66,17.73-16.66,10.67,0,17.15,7.22,17.15,17.15v2.71C172.42,60.53,172.42,60.61,168.24,60.61Zm-.58-5.83c.58-8.45-4.59-13.7-12.47-13.7-8.87,0-13.3,5.5-13.05,14.85h24.29C167.66,55.93,167.58,55.93,167.66,54.78Z"/><path class="cls-1" d="M223.39,60.61h-26.1v1.56c0,8.7,5.42,13.38,13.54,13.38a21.6,21.6,0,0,0,9.77-1.89,6.65,6.65,0,0,1,1.89-.74c.57,0,.9.58,1.64,2a4,4,0,0,1,.57,1.56c0,.41-.33.66-1.23,1.15a30.07,30.07,0,0,1-12.64,2.63c-11.49,0-17.64-7.14-18.22-17.81A90.43,90.43,0,0,1,192.7,53c.73-10.42,7.87-16.66,17.72-16.66,10.67,0,17.15,7.22,17.15,17.15v2.71C227.57,60.53,227.57,60.61,223.39,60.61Zm-.58-5.83c.58-8.45-4.59-13.7-12.47-13.7-8.86,0-13.3,5.5-13.05,14.85h24.29C222.81,55.93,222.73,55.93,222.81,54.78Z"/><path class="cls-1" d="M272.72,39.6c.73.58,1.06,1,1.06,1.48s-.24.82-1,1.72S271.65,44,271.16,44s-.91-.33-2-1a14.8,14.8,0,0,0-7.64-2c-6,0-9.84,2.38-9.84,7.22,0,3,1.64,5.09,7,6.48,3,.74,5.67,1.32,6.32,1.48,7.55,2.05,11.08,5.66,11.08,11.33,0,7.71-5.74,12.72-14.61,12.72a22.8,22.8,0,0,1-14.85-4.84c-.57-.5-1.07-.82-1.07-1.4,0-.41.08-.49,1-1.56s1.06-1.39,1.72-1.39a2.73,2.73,0,0,1,1.4.65,17.84,17.84,0,0,0,11.81,3.78c6.32,0,9.85-3.2,9.85-7.72,0-3.36-2-5.41-7.22-6.73-3-.73-3.28-.82-6.48-1.56C250.64,57.82,247,54.13,247,48.46c0-7.46,5.82-12.14,14.6-12.14A19.65,19.65,0,0,1,272.72,39.6Z"/><path class="cls-1" d="M299.14,29.18c-3,0-3,0-3-3.2s0-3.12,3-3.12c3.2,0,3.2,0,3.2,3.12S302.34,29.18,299.14,29.18Zm2.47,10.26v38c0,2.13,0,2.13-2.47,2.13-2.29,0-2.29,0-2.29-2.13v-38c0-2.38,0-2.38,2.29-2.38C301.61,37.06,301.61,37.06,301.61,39.44Z"/><path class="cls-1" d="M355.53,37.88c1.15.9,1.39,1.15,1.39,1.56s-.16.65-.82,1.56l-13,17L357,75.79c.5.66.83,1.07.83,1.56s-.33.66-1.4,1.56S355,80,354.71,80c-.66,0-.91-.49-1.48-1.23L340.18,61.68,326.84,79c-.33.42-.74,1-1.23,1s-.7-.16-1.84-1.07-1.4-1.15-1.4-1.56.33-.82.74-1.39l14-18.06-13.05-17c-.49-.65-.82-1-.82-1.47s.33-.7,1.32-1.52,1.39-1.07,1.8-1.07c.58,0,.82.33,1.32,1L340.1,54.13,352.24,38c.66-.9.91-1.23,1.48-1.23S354.62,37.22,355.53,37.88Z"/><path class="cls-1" d="M388.89,80.31c-8.12,0-11.57-5.42-11.57-12.56V30.57c0-2.54,0-2.54,2.3-2.54,2.46,0,2.46,0,2.46,2.54v6.49h13.21c2.46,0,2.46,0,2.46,2.42,0,2.26,0,2.26-2.46,2.26H382.08V68.16c0,4.27,2.09,7.39,7,7.39a17.38,17.38,0,0,0,6.89-1.4,3.94,3.94,0,0,1,1.15-.24c.65,0,.82.33,1.39,1.72s.58,1.44.58,1.68c0,.58-.66.91-1.4,1.23A22.35,22.35,0,0,1,388.89,80.31Z"/><path class="cls-1" d="M450.12,37.47c1.31.49,1.8.65,1.8,1.23a6.27,6.27,0,0,1-.57,1.8l-15.51,38c-2.92,7.1-7.64,13.46-11.58,15.76a6.2,6.2,0,0,1-2.21.9c-.49,0-.66-.33-1.48-1.72s-.82-1.56-.82-1.89c0-.49.33-.74,1.31-1.23,3.86-2,7.31-6,10.18-13.29L415,40.42a5.21,5.21,0,0,1-.57-1.64c0-.41.32-.66,1.8-1.23a10,10,0,0,1,2-.66c.58,0,.74.41,1.23,1.56,8.62,19.37,10.18,23.06,14,31.85.08.16.16.32.32.32s.25-.16.33-.32c3-7.55,5.67-14.12,13-32.09.33-.82.57-1.32,1.07-1.32A7.9,7.9,0,0,1,450.12,37.47Z"/><path class="cls-2" d="M490.52,38.53a19.27,19.27,0,1,1,19.26-19.27A19.29,19.29,0,0,1,490.52,38.53Zm0-27.63a8.36,8.36,0,1,0,8.36,8.36A8.37,8.37,0,0,0,490.52,10.9Z"/><text class="cls-3" transform="translate(0 124.9)">The complete creative solution for the virtual age</text></g></g></svg>