<svg xmlns="http://www.w3.org/2000/svg" viewBox="0 0 11.49 11.49"><defs><style>.cls-1{fill:#fff;}.cls-2{fill:#8ec6c1;}</style></defs><g id="Layer_2" data-name="Layer 2"><g id="Layer_1-2" data-name="Layer 1"><path class="cls-1" d="M0,5.74a5.75,5.75,0,1,1,5.74,5.75A5.74,5.74,0,0,1,0,5.74Z"/><path class="cls-2" d="M5.77,9.06H3.52A1.5,1.5,0,0,1,2.93,9a1.16,1.16,0,0,1-.54-.39,1.23,1.23,0,0,1-.27-.75A5.26,5.26,0,0,1,2.2,6.63a3.08,3.08,0,0,1,.35-1.06A1.69,1.69,0,0,1,3.08,5a1.35,1.35,0,0,1,.8-.22.56.56,0,0,1,.26.12c.19.11.37.23.56.33a1.63,1.63,0,0,0,.61.2,2,2,0,0,0,.42.06,2.42,2.42,0,0,0,.47,0,3.5,3.5,0,0,0,.55-.17A4.09,4.09,0,0,0,7.21,5l.36-.22a.15.15,0,0,1,.1,0,1.41,1.41,0,0,1,1,.43,2.28,2.28,0,0,1,.46.76,5,5,0,0,1,.26,1.26,4.45,4.45,0,0,1,0,.73,1.18,1.18,0,0,1-.61.95A1.53,1.53,0,0,1,8,9.06Z"/><path class="cls-2" d="M5.76,5.06a2,2,0,0,1-2-1.95,2,2,0,1,1,4-.06A2,2,0,0,1,5.76,5.06Z"/></g></g></svg>