<svg xmlns="http://www.w3.org/2000/svg" viewBox="0 0 19.55 19.57"><defs><style>.cls-1{fill:#8ec6c1;}.cls-2{fill:#fff;}</style></defs><g id="Layer_2" data-name="Layer 2"><g id="Layer_1-2" data-name="Layer 1"><path class="cls-1" d="M9.72,0A9.79,9.79,0,1,1,0,9.84,9.8,9.8,0,0,1,9.72,0Zm5.91,10A5.91,5.91,0,0,0,8.82,4,1.8,1.8,0,0,1,8,3.86a3.06,3.06,0,0,0-3.33.69A3.1,3.1,0,0,0,3.82,7.9a2.63,2.63,0,0,1,.11,1.15,5.91,5.91,0,0,0,6.69,6.56,1.93,1.93,0,0,1,.92.1,3.15,3.15,0,0,0,3.2-.54,2.89,2.89,0,0,0,1.06-3.06A5.36,5.36,0,0,1,15.63,10Z"/><path class="cls-2" d="M15.63,10a5.36,5.36,0,0,0,.17,2.12,2.89,2.89,0,0,1-1.06,3.06,3.15,3.15,0,0,1-3.2.54,1.93,1.93,0,0,0-.92-.1A5.91,5.91,0,0,1,3.93,9.05,2.63,2.63,0,0,0,3.82,7.9a3.1,3.1,0,0,1,.82-3.35A3.06,3.06,0,0,1,8,3.86,1.8,1.8,0,0,0,8.82,4,5.91,5.91,0,0,1,15.63,10ZM9.78,13.75l.05.17a16.88,16.88,0,0,0,2.33-.81,2,2,0,0,0,1-2A1.85,1.85,0,0,0,11.9,9.41C11.27,9.17,10.61,9,10,8.82a8,8,0,0,1-1.35-.46.53.53,0,0,1,0-1,2.87,2.87,0,0,1,1.13-.3c.76-.07,1.18.44,1.53,1a.76.76,0,0,0,1.08.32.74.74,0,0,0,.38-1,2.54,2.54,0,0,0-.65-.9,4.58,4.58,0,0,0-4.75,0,1.86,1.86,0,0,0,.1,3.13,5.89,5.89,0,0,0,1.37.56,18.47,18.47,0,0,1,1.84.51,1.13,1.13,0,0,1,.63.79,1.18,1.18,0,0,1-.61.82,1.83,1.83,0,0,1-2.56-.85C8,11.28,8,11.06,7.84,11a1.81,1.81,0,0,0-1-.18.88.88,0,0,0-.4.79A3.62,3.62,0,0,0,7.26,13,3.46,3.46,0,0,0,9.78,13.75Z"/><path class="cls-1" d="M9.78,13.75A3.46,3.46,0,0,1,7.26,13a3.62,3.62,0,0,1-.84-1.38.88.88,0,0,1,.4-.79,1.81,1.81,0,0,1,1,.18c.12,0,.17.26.25.4a1.83,1.83,0,0,0,2.56.85,1.18,1.18,0,0,0,.61-.82,1.13,1.13,0,0,0-.63-.79,18.47,18.47,0,0,0-1.84-.51,5.89,5.89,0,0,1-1.37-.56,1.86,1.86,0,0,1-.1-3.13,4.58,4.58,0,0,1,4.75,0,2.54,2.54,0,0,1,.65.9.74.74,0,0,1-.38,1,.76.76,0,0,1-1.08-.32c-.35-.6-.77-1.11-1.53-1a2.87,2.87,0,0,0-1.13.3.53.53,0,0,0,0,1A8,8,0,0,0,10,8.82c.65.2,1.31.35,1.94.59a1.85,1.85,0,0,1,1.26,1.73,2,2,0,0,1-1,2,16.88,16.88,0,0,1-2.33.81Z"/></g></g></svg>