<svg xmlns="http://www.w3.org/2000/svg" viewBox="0 0 19.54 19.56"><defs><style>.cls-1{fill:#8ec6c1;}.cls-2{fill:#fff;}</style></defs><g id="Layer_2" data-name="Layer 2"><g id="Layer_1-2" data-name="Layer 1"><path class="cls-1" d="M9.74,19.56a9.78,9.78,0,1,1,9.8-9.64A9.76,9.76,0,0,1,9.74,19.56Zm-5.4-4.37c1-.35,1.75-.62,2.54-.93a1.39,1.39,0,0,1,1.13,0,4.89,4.89,0,0,0,5.36-.83A4.89,4.89,0,0,0,15,8.32a5.14,5.14,0,1,0-9.74,3.2,1.23,1.23,0,0,1,0,1C5,13.36,4.68,14.21,4.34,15.19Z"/><path class="cls-2" d="M11.09,12.14C8.9,12.1,7,9.61,7.65,7.63A1,1,0,0,1,8.29,7,.91.91,0,0,1,9,7.43,1,1,0,0,1,9,8.34a.71.71,0,0,0,0,1.06,7.9,7.9,0,0,0,1.25,1.27.74.74,0,0,0,1.11,0,.94.94,0,0,1,.86-.1,1.08,1.08,0,0,1,.49.8c0,.2-.36.47-.61.6A3.42,3.42,0,0,1,11.09,12.14Z"/></g></g></svg>